<?xml version="1.0" encoding="iso-8859-1"?>
<!-- Generator: Adobe Illustrator 19.0.0, SVG Export Plug-In . SVG Version: 6.00 Build 0)  -->
<svg xmlns="http://www.w3.org/2000/svg" xmlns:xlink="http://www.w3.org/1999/xlink" version="1.1" id="Capa_1" x="0px" y="0px" viewBox="0 0 512 512" style="enable-background:new 0 0 512 512;" xml:space="preserve" width="512px" height="512px">
<g>
	<g>
		<path d="M467,83.543H45c-24.813,0-45,20.187-45,45v254.913c0,24.813,20.187,45,45,45h422c24.813,0,45-20.187,45-45V128.543    C512,103.73,491.813,83.543,467,83.543z M172.38,370.512c-63.142,0-114.512-51.37-114.512-114.512s51.37-114.512,114.512-114.512    S286.892,192.858,286.892,256S235.522,370.512,172.38,370.512z M344.861,213.331v127.415c0,8.284-6.716,15-15,15s-15-6.716-15-15    V213.331c-5.389-2.275-9.172-7.608-9.172-13.825s3.783-11.55,9.172-13.825v-11.113c0-8.284,6.716-15,15-15s15,6.716,15,15v11.113    c5.39,2.275,9.173,7.608,9.173,13.825S350.251,211.056,344.861,213.331z M399.322,322.321v18.424c0,8.284-6.716,15-15,15    s-15-6.716-15-15v-18.424c-5.389-2.274-9.173-7.607-9.173-13.825c0-6.217,3.783-11.551,9.173-13.825V174.568    c0-8.284,6.716-15,15-15s15,6.716,15,15v120.104c5.39,2.275,9.173,7.608,9.173,13.825    C408.495,314.714,404.712,320.047,399.322,322.321z M453.783,213.331v127.415c0,8.284-6.716,15-15,15s-15-6.716-15-15V213.331    c-5.389-2.274-9.173-7.608-9.173-13.825s3.783-11.551,9.173-13.825v-11.113c0-8.284,6.716-15,15-15s15,6.716,15,15v11.113    c5.39,2.275,9.173,7.608,9.173,13.825S459.173,211.056,453.783,213.331z" fill="#ffe28a"/>
	</g>
</g>
<g>
	<g>
		<path d="M172.38,212.707c-23.872,0-43.293,19.421-43.293,43.293s19.421,43.293,43.293,43.293s43.293-19.421,43.293-43.293    S196.252,212.707,172.38,212.707z M172.38,269.293c-7.33,0-13.293-5.963-13.293-13.293c0-7.33,5.963-13.293,13.293-13.293    s13.293,5.963,13.293,13.293S179.71,269.293,172.38,269.293z" fill="#ffe28a"/>
	</g>
</g>
<g>
</g>
<g>
</g>
<g>
</g>
<g>
</g>
<g>
</g>
<g>
</g>
<g>
</g>
<g>
</g>
<g>
</g>
<g>
</g>
<g>
</g>
<g>
</g>
<g>
</g>
<g>
</g>
<g>
</g>
</svg>
