<?xml version="1.0" encoding="iso-8859-1"?>
<!-- Generator: Adobe Illustrator 19.0.0, SVG Export Plug-In . SVG Version: 6.00 Build 0)  -->
<svg xmlns="http://www.w3.org/2000/svg" xmlns:xlink="http://www.w3.org/1999/xlink" version="1.1" id="Capa_1" x="0px" y="0px" viewBox="0 0 512 512" style="enable-background:new 0 0 512 512;" xml:space="preserve" width="512px" height="512px">
<g>
	<g>
		<path d="M512,116.461c0-31.226-12.082-60.504-34.02-82.442C456.042,12.082,426.764,0,395.538,0    c-28.884,0-56.097,10.345-77.379,29.259c-1.027-0.188-2.076-0.293-3.143-0.293c-4.623,0-8.964,1.795-12.224,5.054l-40.563,40.562    c-3.259,3.26-5.054,7.601-5.054,12.224c0,0.977,0.098,1.937,0.254,2.88L89.686,257.43c-0.944-0.157-1.904-0.254-2.88-0.254    c-4.623,0-8.964,1.795-12.223,5.054l-40.564,40.565c-4.169,4.171-5.752,9.96-4.76,15.365C10.344,339.441,0,366.654,0,395.539    c0,31.226,12.082,60.504,34.02,82.441C55.958,499.918,85.236,512,116.462,512c28.884,0,56.097-10.345,77.379-29.259    c1.027,0.188,2.076,0.293,3.143,0.293c4.623,0,8.964-1.795,12.224-5.054l40.562-40.563c3.26-3.259,5.055-7.601,5.055-12.224    c0-0.977-0.097-1.936-0.254-2.881L422.314,254.57c0.944,0.157,1.904,0.254,2.881,0.254c4.624,0,8.965-1.795,12.223-5.054    l40.563-40.563c4.171-4.172,5.754-9.962,4.762-15.368C501.655,172.557,512,145.345,512,116.461z M315.015,50.081l27.287,27.288    l-36.724,36.725L278.29,86.806L315.015,50.081z M351.53,133.317l-18.445-18.445l9.997-9.996l64.043,64.042l-9.997,9.997    l-18.444-18.444c-1.953-1.953-4.512-2.929-7.071-2.929c-2.559,0-5.118,0.976-7.071,2.929l-8.487,8.485    c-1.722,1.723-4.033,2.671-6.505,2.671s-4.782-0.949-6.505-2.672c-1.723-1.723-2.672-4.033-2.672-6.505    c0-2.473,0.949-4.783,2.671-6.505l8.485-8.485C355.435,143.554,355.435,137.222,351.53,133.317z M86.806,278.29l27.288,27.288    l-6.283,6.283c-0.003,0.004-0.008,0.007-0.011,0.01L83.662,336.01c-0.002,0.001-0.002,0.003-0.004,0.004l-6.289,6.289    l-27.288-27.289L86.806,278.29z M160.471,378.683l18.445,18.445l-9.997,9.997l-64.043-64.043l9.996-9.996l18.445,18.445    c3.905,3.905,10.237,3.905,14.143,0l8.485-8.486c1.722-1.723,4.033-2.671,6.505-2.671c2.472,0,4.783,0.949,6.506,2.671    c1.723,1.723,2.672,4.033,2.672,6.506c0,2.472-0.949,4.782-2.672,6.505l-8.485,8.485c-1.875,1.876-2.929,4.419-2.929,7.071    C157.542,374.264,158.596,376.808,160.471,378.683z M116.462,492c-25.884,0-50.14-10.001-68.3-28.162    C30.001,445.678,20,421.422,20,395.539c0-22.496,7.558-43.759,21.457-60.862l23.689,23.689c3.259,3.259,7.6,5.053,12.223,5.053    c4.623,0,8.963-1.795,12.224-5.054l1.141-1.141l64.043,64.043l-1.141,1.141c-6.74,6.74-6.74,17.707,0,24.446l23.688,23.689    C160.22,484.442,138.957,492,116.462,492z M196.984,461.919l-27.287-27.288l23.577-23.577l6.854-6.854    c0.001-0.001,0.002-0.002,0.003-0.003l6.291-6.29l27.287,27.288L196.984,461.919z M383.983,264.617l-21.945-21.945    c-3.905-3.905-10.236-3.905-14.142,0c-3.905,3.905-3.905,10.237,0,14.142l21.945,21.945l-127.142,127.14l-24.054-24.055    c-3.26-3.259-7.601-5.054-12.224-5.054s-8.964,1.795-12.224,5.054l-1.141,1.141l-11.374-11.374l1.414-1.414    c5.501-5.5,8.53-12.833,8.53-20.648s-3.03-15.148-8.53-20.648s-12.833-8.529-20.648-8.529s-15.147,3.029-20.647,8.529    l-1.414,1.415l-11.374-11.374l1.141-1.141c3.259-3.26,5.054-7.601,5.054-12.224s-1.795-8.964-5.054-12.223L106.1,269.3    l21.076-21.076l21.944,21.945c1.953,1.953,4.512,2.929,7.071,2.929c2.559,0,5.119-0.977,7.071-2.929    c3.905-3.905,3.905-10.237,0.001-14.142l-21.944-21.945L269.301,106.1l24.056,24.056c3.259,3.258,7.6,5.052,12.222,5.052    c4.622,0,8.963-1.794,12.223-5.054l1.142-1.142l11.374,11.374l-1.415,1.414c-5.5,5.5-8.529,12.833-8.529,20.648    c0,7.814,3.03,15.148,8.53,20.648s12.833,8.529,20.647,8.529c7.814,0,15.147-3.029,20.647-8.529l1.415-1.415l11.374,11.374    l-1.142,1.142c-6.739,6.739-6.739,17.705,0,24.447l24.055,24.055L383.983,264.617z M425.195,233.709l-27.289-27.288l36.723-36.723    c0.002-0.002,0,0,0.002-0.002l27.288,27.288L425.195,233.709z M470.544,177.323l-23.69-23.689    c-3.259-3.258-7.6-5.053-12.222-5.053c-4.623,0-8.963,1.795-12.223,5.054l-1.141,1.141l-64.044-64.043l1.14-1.14    c3.26-3.259,5.055-7.601,5.055-12.224s-1.795-8.964-5.054-12.223l-23.687-23.689c17.103-13.899,38.366-21.456,60.861-21.456    c25.883,0,50.138,10.001,68.299,28.161C481.999,66.322,492,90.578,492,116.461C492,138.957,484.442,160.22,470.544,177.323z" fill="#fb2e01"/>
	</g>
</g>
<g>
	<g>
		<path d="M341.7,222.337l-0.168-0.167c-3.916-3.893-10.247-3.876-14.142,0.042c-3.893,3.917-3.875,10.248,0.042,14.142l0.168,0.167    c1.951,1.939,4.5,2.908,7.05,2.908c2.569,0,5.137-0.984,7.092-2.95C345.635,232.562,345.617,226.231,341.7,222.337z" fill="#fb2e01"/>
	</g>
</g>
<g>
	<g>
		<path d="M183.762,276.534l-0.165-0.168c-3.895-3.917-10.226-3.934-14.142-0.041c-3.917,3.894-3.935,10.226-0.042,14.142    l0.166,0.167c1.955,1.966,4.523,2.95,7.092,2.95c2.549,0,5.1-0.969,7.05-2.908C187.637,286.782,187.656,280.45,183.762,276.534z" fill="#fb2e01"/>
	</g>
</g>
<g>
</g>
<g>
</g>
<g>
</g>
<g>
</g>
<g>
</g>
<g>
</g>
<g>
</g>
<g>
</g>
<g>
</g>
<g>
</g>
<g>
</g>
<g>
</g>
<g>
</g>
<g>
</g>
<g>
</g>
</svg>
